#!OML:ASF H:\Terrain\Patient Classification 1\Walking\steve\steve.ASF
:FULLY-SPECIFIED
:DEGREES
46
root 6.80697 15.4075 -26.4062 9.05518 -4.3084 4.37389
lowerback 2.29644 -2.24014 -7.37871
upperback -4.17493 -3.45444 -1.5829
thorax -5.31622 -1.44519 2.70093
lowerneck -9.90828 2.37788 2.12236
upperneck 15.6648 2.49161 2.28649
head 6.39384 1.5087 0.5872
rclavicle 6.8208e-015 -1.19271e-014
rhumerus -71.0288 2.44053 -71.7257
rradius 26.5578
rwrist 5.89764
rhand -15.1385 -31.0015
rfingers 7.12502
rthumb 11.0312 -60.6917
lclavicle 6.8208e-015 -1.19271e-014
lhumerus 13.556 -13.4734 77.06
lradius 36.3589
lwrist 26.9322
lhand -24.4896 -15.8769
lfingers 7.12502
lthumb 2.00447 14.0934
rfemur -49.4273 2.80796 19.4901
rtibia 52.6083
rfoot -22.7879 1.09613
rtoes -13.2439
lfemur 1.45891 3.30745 -29.453
ltibia 22.986
lfoot -11.4312 -11.7036
ltoes 5.16989
47
root 6.80483 15.3607 -26.149 8.85298 -3.73524 5.07338
lowerback 2.37448 -2.59367 -7.87153
upperback -4.07068 -3.95817 -1.71071
thorax -5.18286 -1.68458 2.86821
lowerneck -10.0326 2.40004 2.5178
upperneck 15.6747 2.52435 1.84758
head 6.4305 1.51254 0.387466
rclavicle -1.22501e-014 -1.11319e-014
rhumerus -71.9628 2.18115 -69.7589
rradius 26.0237
rwrist 5.27289
rhand -14.8492 -32.01
rfingers 7.12502
rthumb 11.3102 -61.685
lclavicle -1.22501e-014 -1.11319e-014
lhumerus 15.9567 -14.5987 75.1411
lradius 36.7374
lwrist 27.6946
lhand -24.0216 -15.3731
lfingers 7.12502
lthumb 2.45646 14.5925
rfemur -50.5698 2.65423 18.8205
rtibia 51.141
rfoot -22.2205 0.0764521
rtoes -12.3468
lfemur 3.63005 2.93769 -30.0587
ltibia 21.1134
lfoot -10.7005 -11.6944
ltoes 5.45493
48
root 6.80124 15.2972 -25.8882 8.57554 -3.20614 5.45511
lowerback 2.30524 -3.02683 -8.10299
upperback -3.82704 -4.52079 -1.65688
thorax -4.80658 -1.97424 3.06677
lowerneck -10.1168 2.52598 2.26853
upperneck 15.5468 2.73044 1.88783
head 6.39983 1.59961 0.4584
rclavicle 4.70871e-015 5.76476e-014
rhumerus -72.6947 2.15159 -67.5983
rradius 25.3909
rwrist 5.54516
rhand -14.5918 -33.2165
rfingers 7.12502
rthumb 11.5585 -62.8778
lclavicle 4.70871e-015 5.76476e-014
lhumerus 18.4463 -14.6269 73.5237
lradius 36.6496
lwrist 27.6031
lhand -23.5728 -14.8979
lfingers 7.12502
lthumb 2.88993 15.0623
rfemur -51.554 2.41863 18.5244
rtibia 49.6237
rfoot -21.9049 -0.386054
rtoes -11.333
lfemur 6.08105 2.84197 -30.2925
ltibia 19.0229
lfoot -10.1309 -11.6985
ltoes 4.56384
49
root 6.79832 15.2346 -25.6218 8.33359 -2.52196 5.5153
lowerback 2.29118 -3.57513 -8.01109
upperback -3.70863 -5.22788 -1.42345
thorax -4.58071 -2.33643 3.28217
lowerneck -9.3269 3.0489 1.86059
upperneck 14.9614 3.5015 2.13689
head 6.06499 1.9614 0.647221
rclavicle -7.16867e-014 -3.45885e-014
rhumerus -73.5334 2.60311 -65.2789
rradius 24.6385
rwrist 4.93783
rhand -16.0977 -32.1077
rfingers 7.12502
rthumb 10.1059 -61.845
lclavicle -7.16867e-014 -3.45885e-014
lhumerus 20.6601 -14.1401 72.0429
lradius 36.3506
lwrist 27.6599
lhand -23.0598 -15.101
lfingers 7.12502
lthumb 3.38538 14.8519
rfemur -52.3768 2.03348 18.5867
rtibia 47.9431
rfoot -21.8585 -0.820069
rtoes -11.1219
lfemur 8.69154 2.8678 -30.0757
ltibia 16.626
lfoot -9.29429 -11.8414
ltoes 4.1174
50
root 6.79689 15.2 -25.3565 8.30143 -1.8245 5.52603
lowerback 2.2921 -4.06741 -7.83546
upperback -3.78689 -5.87176 -1.19247
thorax -4.58299 -2.65661 3.45257
lowerneck -8.74367 3.35383 1.73546
upperneck 14.7639 3.97762 1.98248
head 5.90126 2.17039 0.642229
rclavicle 1.55301e-015 9.14409e-015
rhumerus -74.5168 2.90338 -62.3996
rradius 25.0592
rwrist 4.64984
rhand -13.0899 -33.0427
rfingers 7.12502
rthumb 13.0065 -62.6172
lclavicle 1.55301e-015 9.14409e-015
lhumerus 22.5562 -14.254 70.2863
lradius 36.5866
lwrist 28.4574
lhand -22.9588 -14.8521
lfingers 7.12502
lthumb 3.48287 15.0992
rfemur -53.1465 2.35508 18.2886
rtibia 46.027
rfoot -22.2641 -2.04722
rtoes -9.88585
lfemur 11.1938 2.77844 -29.7906
ltibia 13.8425
lfoot -8.19661 -11.7694
ltoes 3.19094
51
root 6.78749 15.1612 -25.0918 8.20074 -1.473 5.66171
lowerback 2.29536 -4.36725 -7.95609
upperback -3.74899 -6.26972 -1.06858
thorax -4.47453 -2.85328 3.65789
lowerneck -8.89066 3.48699 1.92376
upperneck 14.9445 4.19286 1.54553
head 5.99708 2.25347 0.496497
rclavicle -3.70174e-014 -4.17448e-015
rhumerus -75.3972 2.89015 -59.6292
rradius 25.246
rwrist 3.83411
rhand -11.1944 -33.7223
rfingers 7.12502
rthumb 14.8332 -63.1714
lclavicle -3.70174e-014 -4.17448e-015
lhumerus 24.6768 -14.4439 68.473
lradius 36.8086
lwrist 28.8977
lhand -23.1981 -14.0744
lfingers 7.12502
lthumb 3.25176 15.8805
rfemur -53.8247 2.96638 17.7835
rtibia 43.9768
rfoot -22.5312 -2.90197
rtoes -6.09914
lfemur 14.1247 2.7693 -29.726
ltibia 10.2867
lfoot -6.83569 -11.2989
ltoes 1.90724
52
root 6.77517 15.1013 -24.8244 8.02084 -1.14492 5.9012
lowerback 2.34603 -4.59875 -8.19651
upperback -3.56448 -6.58141 -1.04979
thorax -4.24564 -3.01386 3.81176
lowerneck -8.32764 3.24708 2.70299
upperneck 13.9093 3.95283 0.386347
head 5.61578 2.08786 -0.0340409
rclavicle -1.21445e-014 -6.95746e-015
rhumerus -76.0864 2.65101 -57.1142
rradius 25.0088
rwrist 3.06188
rhand -11.6182 -33.3179
rfingers 7.12502
rthumb 14.4249 -62.7966
lclavicle -1.21445e-014 -6.95746e-015
lhumerus 27.1537 -14.2462 66.8346
lradius 36.4243
lwrist 28.7321
lhand -22.9631 -14.3963
lfingers 7.12502
lthumb 3.47875 15.5551
rfemur -54.414 2.55857 17.7924
rtibia 41.845
rfoot -21.7498 -3.0598
rtoes -5.9831
lfemur 18.1941 2.56584 -29.8283
ltibia 4.72708
lfoot -4.50969 -10.1605
ltoes 2.7871
53
root 6.77121 15.0379 -24.5529 8.01766 -0.516384 5.99149
lowerback 2.29081 -4.91739 -8.06876
upperback -3.48513 -6.98801 -1.0123
thorax -4.09025 -3.22891 3.78175
lowerneck -8.73193 3.31105 2.98718
upperneck 14.2202 4.01417 0.18427
head 5.79378 2.11888 -0.12828
rclavicle 2.94015e-014 -1.53064e-014
rhumerus -76.8429 2.48239 -54.5814
rradius 24.795
rwrist 2.08355
rhand -11.9111 -32.902
rfingers 7.12502
rthumb 14.1427 -62.4007
lclavicle 2.94015e-014 -1.53064e-014
lhumerus 29.4024 -13.7412 65.5302
lradius 35.8113
lwrist 28.319
lhand -22.4221 -15.3322
lfingers 7.12502
lthumb 4.00114 14.61
rfemur -55.0678 1.84725 18.0022
rtibia 39.7777
rfoot -21.0364 -3.15689
rtoes -8.08492
lfemur 21.6815 2.07331 -29.7957
ltibia 7.31528e-014
lfoot -2.56524 -9.1577
ltoes 2.92931
